# xmcd
# Copyright (C) 1995-1998 Ti Kan
#
# Track frame offsets:
#       150
#       13115
#       32290
#
# Disc length: 733 seconds
#
# Revision: 0
# Processed by: cddbd v1.4PL0 Copyright (c) Steve Scherf et al.
# Submitted via: CD-Transfer v1.0
#
DISCID=1502db03
DTITLE=Bianchi - Children Of The Revolution
DYEAR=2002
DGENRE=
TTITLE0=Children Of The Revolution
TTITLE1=Who Can Tell
TTITLE2=He Checked In To Heaven
EXTD=
EXTT0=
EXTT1=
EXTT2=
PLAYORDER=
